<?xml version="1.0" encoding="utf-8" ?>
<svg baseProfile="full" height="2000" version="1.1" width="1600" xmlns="http://www.w3.org/2000/svg" xmlns:ev="http://www.w3.org/2001/xml-events" xmlns:xlink="http://www.w3.org/1999/xlink"><defs /><rect fill="#000000" height="2000" width="1600" x="0" y="0" /><line stroke="#444444" x1="10" x2="10" y1="0" y2="2000" /><line stroke="#444444" x1="20" x2="20" y1="0" y2="2000" /><line stroke="#444444" x1="30" x2="30" y1="0" y2="2000" /><line stroke="#444444" x1="40" x2="40" y1="0" y2="2000" /><line stroke="#444444" x1="50" x2="50" y1="0" y2="2000" /><line stroke="#444444" x1="60" x2="60" y1="0" y2="2000" /><line stroke="#444444" x1="70" x2="70" y1="0" y2="2000" /><line stroke="#444444" x1="80" x2="80" y1="0" y2="2000" /><line stroke="#444444" x1="90" x2="90" y1="0" y2="2000" /><line stroke="#444444" x1="100" x2="100" y1="0" y2="2000" /><line stroke="#444444" x1="110" x2="110" y1="0" y2="2000" /><line stroke="#444444" x1="120" x2="120" y1="0" y2="2000" /><line stroke="#444444" x1="130" x2="130" y1="0" y2="2000" /><line stroke="#444444" x1="140" x2="140" y1="0" y2="2000" /><line stroke="#444444" x1="150" x2="150" y1="0" y2="2000" /><line stroke="#444444" x1="160" x2="160" y1="0" y2="2000" /><line stroke="#444444" x1="170" x2="170" y1="0" y2="2000" /><line stroke="#444444" x1="180" x2="180" y1="0" y2="2000" /><line stroke="#444444" x1="190" x2="190" y1="0" y2="2000" /><line stroke="#444444" x1="200" x2="200" y1="0" y2="2000" /><line stroke="#444444" x1="210" x2="210" y1="0" y2="2000" /><line stroke="#444444" x1="220" x2="220" y1="0" y2="2000" /><line stroke="#444444" x1="230" x2="230" y1="0" y2="2000" /><line stroke="#444444" x1="240" x2="240" y1="0" y2="2000" /><line stroke="#444444" x1="250" x2="250" y1="0" y2="2000" /><line stroke="#444444" x1="260" x2="260" y1="0" y2="2000" /><line stroke="#444444" x1="270" x2="270" y1="0" y2="2000" /><line stroke="#444444" x1="280" x2="280" y1="0" y2="2000" /><line stroke="#444444" x1="290" x2="290" y1="0" y2="2000" /><line stroke="#444444" x1="300" x2="300" y1="0" y2="2000" /><line stroke="#444444" x1="310" x2="310" y1="0" y2="2000" /><line stroke="#444444" x1="320" x2="320" y1="0" y2="2000" /><line stroke="#444444" x1="330" x2="330" y1="0" y2="2000" /><line stroke="#444444" x1="340" x2="340" y1="0" y2="2000" /><line stroke="#444444" x1="350" x2="350" y1="0" y2="2000" /><line stroke="#444444" x1="360" x2="360" y1="0" y2="2000" /><line stroke="#444444" x1="370" x2="370" y1="0" y2="2000" /><line stroke="#444444" x1="380" x2="380" y1="0" y2="2000" /><line stroke="#444444" x1="390" x2="390" y1="0" y2="2000" /><line stroke="#444444" x1="400" x2="400" y1="0" y2="2000" /><line stroke="#444444" x1="410" x2="410" y1="0" y2="2000" /><line stroke="#444444" x1="420" x2="420" y1="0" y2="2000" /><line stroke="#444444" x1="430" x2="430" y1="0" y2="2000" /><line stroke="#444444" x1="440" x2="440" y1="0" y2="2000" /><line stroke="#444444" x1="450" x2="450" y1="0" y2="2000" /><line stroke="#444444" x1="460" x2="460" y1="0" y2="2000" /><line stroke="#444444" x1="470" x2="470" y1="0" y2="2000" /><line stroke="#444444" x1="480" x2="480" y1="0" y2="2000" /><line stroke="#444444" x1="490" x2="490" y1="0" y2="2000" /><line stroke="#444444" x1="500" x2="500" y1="0" y2="2000" /><line stroke="#444444" x1="510" x2="510" y1="0" y2="2000" /><line stroke="#444444" x1="520" x2="520" y1="0" y2="2000" /><line stroke="#444444" x1="530" x2="530" y1="0" y2="2000" /><line stroke="#444444" x1="540" x2="540" y1="0" y2="2000" /><line stroke="#444444" x1="550" x2="550" y1="0" y2="2000" /><line stroke="#444444" x1="560" x2="560" y1="0" y2="2000" /><line stroke="#444444" x1="570" x2="570" y1="0" y2="2000" /><line stroke="#444444" x1="580" x2="580" y1="0" y2="2000" /><line stroke="#444444" x1="590" x2="590" y1="0" y2="2000" /><line stroke="#444444" x1="600" x2="600" y1="0" y2="2000" /><line stroke="#444444" x1="610" x2="610" y1="0" y2="2000" /><line stroke="#444444" x1="620" x2="620" y1="0" y2="2000" /><line stroke="#444444" x1="630" x2="630" y1="0" y2="2000" /><line stroke="#444444" x1="640" x2="640" y1="0" y2="2000" /><line stroke="#444444" x1="650" x2="650" y1="0" y2="2000" /><line stroke="#444444" x1="660" x2="660" y1="0" y2="2000" /><line stroke="#444444" x1="670" x2="670" y1="0" y2="2000" /><line stroke="#444444" x1="680" x2="680" y1="0" y2="2000" /><line stroke="#444444" x1="690" x2="690" y1="0" y2="2000" /><line stroke="#444444" x1="700" x2="700" y1="0" y2="2000" /><line stroke="#444444" x1="710" x2="710" y1="0" y2="2000" /><line stroke="#444444" x1="720" x2="720" y1="0" y2="2000" /><line stroke="#444444" x1="730" x2="730" y1="0" y2="2000" /><line stroke="#444444" x1="740" x2="740" y1="0" y2="2000" /><line stroke="#444444" x1="750" x2="750" y1="0" y2="2000" /><line stroke="#444444" x1="760" x2="760" y1="0" y2="2000" /><line stroke="#444444" x1="770" x2="770" y1="0" y2="2000" /><line stroke="#444444" x1="780" x2="780" y1="0" y2="2000" /><line stroke="#444444" x1="790" x2="790" y1="0" y2="2000" /><line stroke="#444444" x1="800" x2="800" y1="0" y2="2000" /><line stroke="#444444" x1="810" x2="810" y1="0" y2="2000" /><line stroke="#444444" x1="820" x2="820" y1="0" y2="2000" /><line stroke="#444444" x1="830" x2="830" y1="0" y2="2000" /><line stroke="#444444" x1="840" x2="840" y1="0" y2="2000" /><line stroke="#444444" x1="850" x2="850" y1="0" y2="2000" /><line stroke="#444444" x1="860" x2="860" y1="0" y2="2000" /><line stroke="#444444" x1="870" x2="870" y1="0" y2="2000" /><line stroke="#444444" x1="880" x2="880" y1="0" y2="2000" /><line stroke="#444444" x1="890" x2="890" y1="0" y2="2000" /><line stroke="#444444" x1="900" x2="900" y1="0" y2="2000" /><line stroke="#444444" x1="910" x2="910" y1="0" y2="2000" /><line stroke="#444444" x1="920" x2="920" y1="0" y2="2000" /><line stroke="#444444" x1="930" x2="930" y1="0" y2="2000" /><line stroke="#444444" x1="940" x2="940" y1="0" y2="2000" /><line stroke="#444444" x1="950" x2="950" y1="0" y2="2000" /><line stroke="#444444" x1="960" x2="960" y1="0" y2="2000" /><line stroke="#444444" x1="970" x2="970" y1="0" y2="2000" /><line stroke="#444444" x1="980" x2="980" y1="0" y2="2000" /><line stroke="#444444" x1="990" x2="990" y1="0" y2="2000" /><line stroke="#444444" x1="1000" x2="1000" y1="0" y2="2000" /><line stroke="#444444" x1="1010" x2="1010" y1="0" y2="2000" /><line stroke="#444444" x1="1020" x2="1020" y1="0" y2="2000" /><line stroke="#444444" x1="1030" x2="1030" y1="0" y2="2000" /><line stroke="#444444" x1="1040" x2="1040" y1="0" y2="2000" /><line stroke="#444444" x1="1050" x2="1050" y1="0" y2="2000" /><line stroke="#444444" x1="1060" x2="1060" y1="0" y2="2000" /><line stroke="#444444" x1="1070" x2="1070" y1="0" y2="2000" /><line stroke="#444444" x1="1080" x2="1080" y1="0" y2="2000" /><line stroke="#444444" x1="1090" x2="1090" y1="0" y2="2000" /><line stroke="#444444" x1="1100" x2="1100" y1="0" y2="2000" /><line stroke="#444444" x1="1110" x2="1110" y1="0" y2="2000" /><line stroke="#444444" x1="1120" x2="1120" y1="0" y2="2000" /><line stroke="#444444" x1="1130" x2="1130" y1="0" y2="2000" /><line stroke="#444444" x1="1140" x2="1140" y1="0" y2="2000" /><line stroke="#444444" x1="1150" x2="1150" y1="0" y2="2000" /><line stroke="#444444" x1="1160" x2="1160" y1="0" y2="2000" /><line stroke="#444444" x1="1170" x2="1170" y1="0" y2="2000" /><line stroke="#444444" x1="1180" x2="1180" y1="0" y2="2000" /><line stroke="#444444" x1="1190" x2="1190" y1="0" y2="2000" /><line stroke="#444444" x1="1200" x2="1200" y1="0" y2="2000" /><line stroke="#444444" x1="1210" x2="1210" y1="0" y2="2000" /><line stroke="#444444" x1="1220" x2="1220" y1="0" y2="2000" /><line stroke="#444444" x1="1230" x2="1230" y1="0" y2="2000" /><line stroke="#444444" x1="1240" x2="1240" y1="0" y2="2000" /><line stroke="#444444" x1="1250" x2="1250" y1="0" y2="2000" /><line stroke="#444444" x1="1260" x2="1260" y1="0" y2="2000" /><line stroke="#444444" x1="1270" x2="1270" y1="0" y2="2000" /><line stroke="#444444" x1="1280" x2="1280" y1="0" y2="2000" /><line stroke="#444444" x1="1290" x2="1290" y1="0" y2="2000" /><line stroke="#444444" x1="1300" x2="1300" y1="0" y2="2000" /><line stroke="#444444" x1="1310" x2="1310" y1="0" y2="2000" /><line stroke="#444444" x1="1320" x2="1320" y1="0" y2="2000" /><line stroke="#444444" x1="1330" x2="1330" y1="0" y2="2000" /><line stroke="#444444" x1="1340" x2="1340" y1="0" y2="2000" /><line stroke="#444444" x1="1350" x2="1350" y1="0" y2="2000" /><line stroke="#444444" x1="1360" x2="1360" y1="0" y2="2000" /><line stroke="#444444" x1="1370" x2="1370" y1="0" y2="2000" /><line stroke="#444444" x1="1380" x2="1380" y1="0" y2="2000" /><line stroke="#444444" x1="1390" x2="1390" y1="0" y2="2000" /><line stroke="#444444" x1="1400" x2="1400" y1="0" y2="2000" /><line stroke="#444444" x1="1410" x2="1410" y1="0" y2="2000" /><line stroke="#444444" x1="1420" x2="1420" y1="0" y2="2000" /><line stroke="#444444" x1="1430" x2="1430" y1="0" y2="2000" /><line stroke="#444444" x1="1440" x2="1440" y1="0" y2="2000" /><line stroke="#444444" x1="1450" x2="1450" y1="0" y2="2000" /><line stroke="#444444" x1="1460" x2="1460" y1="0" y2="2000" /><line stroke="#444444" x1="1470" x2="1470" y1="0" y2="2000" /><line stroke="#444444" x1="1480" x2="1480" y1="0" y2="2000" /><line stroke="#444444" x1="1490" x2="1490" y1="0" y2="2000" /><line stroke="#444444" x1="1500" x2="1500" y1="0" y2="2000" /><line stroke="#444444" x1="1510" x2="1510" y1="0" y2="2000" /><line stroke="#444444" x1="1520" x2="1520" y1="0" y2="2000" /><line stroke="#444444" x1="1530" x2="1530" y1="0" y2="2000" /><line stroke="#444444" x1="1540" x2="1540" y1="0" y2="2000" /><line stroke="#444444" x1="1550" x2="1550" y1="0" y2="2000" /><line stroke="#444444" x1="1560" x2="1560" y1="0" y2="2000" /><line stroke="#444444" x1="1570" x2="1570" y1="0" y2="2000" /><line stroke="#444444" x1="1580" x2="1580" y1="0" y2="2000" /><line stroke="#444444" x1="1590" x2="1590" y1="0" y2="2000" /><line stroke="#444444" x1="0" x2="1600" y1="10" y2="10" /><line stroke="#444444" x1="0" x2="1600" y1="20" y2="20" /><line stroke="#444444" x1="0" x2="1600" y1="30" y2="30" /><line stroke="#444444" x1="0" x2="1600" y1="40" y2="40" /><line stroke="#444444" x1="0" x2="1600" y1="50" y2="50" /><line stroke="#444444" x1="0" x2="1600" y1="60" y2="60" /><line stroke="#444444" x1="0" x2="1600" y1="70" y2="70" /><line stroke="#444444" x1="0" x2="1600" y1="80" y2="80" /><line stroke="#444444" x1="0" x2="1600" y1="90" y2="90" /><line stroke="#444444" x1="0" x2="1600" y1="100" y2="100" /><line stroke="#444444" x1="0" x2="1600" y1="110" y2="110" /><line stroke="#444444" x1="0" x2="1600" y1="120" y2="120" /><line stroke="#444444" x1="0" x2="1600" y1="130" y2="130" /><line stroke="#444444" x1="0" x2="1600" y1="140" y2="140" /><line stroke="#444444" x1="0" x2="1600" y1="150" y2="150" /><line stroke="#444444" x1="0" x2="1600" y1="160" y2="160" /><line stroke="#444444" x1="0" x2="1600" y1="170" y2="170" /><line stroke="#444444" x1="0" x2="1600" y1="180" y2="180" /><line stroke="#444444" x1="0" x2="1600" y1="190" y2="190" /><line stroke="#444444" x1="0" x2="1600" y1="200" y2="200" /><line stroke="#444444" x1="0" x2="1600" y1="210" y2="210" /><line stroke="#444444" x1="0" x2="1600" y1="220" y2="220" /><line stroke="#444444" x1="0" x2="1600" y1="230" y2="230" /><line stroke="#444444" x1="0" x2="1600" y1="240" y2="240" /><line stroke="#444444" x1="0" x2="1600" y1="250" y2="250" /><line stroke="#444444" x1="0" x2="1600" y1="260" y2="260" /><line stroke="#444444" x1="0" x2="1600" y1="270" y2="270" /><line stroke="#444444" x1="0" x2="1600" y1="280" y2="280" /><line stroke="#444444" x1="0" x2="1600" y1="290" y2="290" /><line stroke="#444444" x1="0" x2="1600" y1="300" y2="300" /><line stroke="#444444" x1="0" x2="1600" y1="310" y2="310" /><line stroke="#444444" x1="0" x2="1600" y1="320" y2="320" /><line stroke="#444444" x1="0" x2="1600" y1="330" y2="330" /><line stroke="#444444" x1="0" x2="1600" y1="340" y2="340" /><line stroke="#444444" x1="0" x2="1600" y1="350" y2="350" /><line stroke="#444444" x1="0" x2="1600" y1="360" y2="360" /><line stroke="#444444" x1="0" x2="1600" y1="370" y2="370" /><line stroke="#444444" x1="0" x2="1600" y1="380" y2="380" /><line stroke="#444444" x1="0" x2="1600" y1="390" y2="390" /><line stroke="#444444" x1="0" x2="1600" y1="400" y2="400" /><line stroke="#444444" x1="0" x2="1600" y1="410" y2="410" /><line stroke="#444444" x1="0" x2="1600" y1="420" y2="420" /><line stroke="#444444" x1="0" x2="1600" y1="430" y2="430" /><line stroke="#444444" x1="0" x2="1600" y1="440" y2="440" /><line stroke="#444444" x1="0" x2="1600" y1="450" y2="450" /><line stroke="#444444" x1="0" x2="1600" y1="460" y2="460" /><line stroke="#444444" x1="0" x2="1600" y1="470" y2="470" /><line stroke="#444444" x1="0" x2="1600" y1="480" y2="480" /><line stroke="#444444" x1="0" x2="1600" y1="490" y2="490" /><line stroke="#444444" x1="0" x2="1600" y1="500" y2="500" /><line stroke="#444444" x1="0" x2="1600" y1="510" y2="510" /><line stroke="#444444" x1="0" x2="1600" y1="520" y2="520" /><line stroke="#444444" x1="0" x2="1600" y1="530" y2="530" /><line stroke="#444444" x1="0" x2="1600" y1="540" y2="540" /><line stroke="#444444" x1="0" x2="1600" y1="550" y2="550" /><line stroke="#444444" x1="0" x2="1600" y1="560" y2="560" /><line stroke="#444444" x1="0" x2="1600" y1="570" y2="570" /><line stroke="#444444" x1="0" x2="1600" y1="580" y2="580" /><line stroke="#444444" x1="0" x2="1600" y1="590" y2="590" /><line stroke="#444444" x1="0" x2="1600" y1="600" y2="600" /><line stroke="#444444" x1="0" x2="1600" y1="610" y2="610" /><line stroke="#444444" x1="0" x2="1600" y1="620" y2="620" /><line stroke="#444444" x1="0" x2="1600" y1="630" y2="630" /><line stroke="#444444" x1="0" x2="1600" y1="640" y2="640" /><line stroke="#444444" x1="0" x2="1600" y1="650" y2="650" /><line stroke="#444444" x1="0" x2="1600" y1="660" y2="660" /><line stroke="#444444" x1="0" x2="1600" y1="670" y2="670" /><line stroke="#444444" x1="0" x2="1600" y1="680" y2="680" /><line stroke="#444444" x1="0" x2="1600" y1="690" y2="690" /><line stroke="#444444" x1="0" x2="1600" y1="700" y2="700" /><line stroke="#444444" x1="0" x2="1600" y1="710" y2="710" /><line stroke="#444444" x1="0" x2="1600" y1="720" y2="720" /><line stroke="#444444" x1="0" x2="1600" y1="730" y2="730" /><line stroke="#444444" x1="0" x2="1600" y1="740" y2="740" /><line stroke="#444444" x1="0" x2="1600" y1="750" y2="750" /><line stroke="#444444" x1="0" x2="1600" y1="760" y2="760" /><line stroke="#444444" x1="0" x2="1600" y1="770" y2="770" /><line stroke="#444444" x1="0" x2="1600" y1="780" y2="780" /><line stroke="#444444" x1="0" x2="1600" y1="790" y2="790" /><line stroke="#444444" x1="0" x2="1600" y1="800" y2="800" /><line stroke="#444444" x1="0" x2="1600" y1="810" y2="810" /><line stroke="#444444" x1="0" x2="1600" y1="820" y2="820" /><line stroke="#444444" x1="0" x2="1600" y1="830" y2="830" /><line stroke="#444444" x1="0" x2="1600" y1="840" y2="840" /><line stroke="#444444" x1="0" x2="1600" y1="850" y2="850" /><line stroke="#444444" x1="0" x2="1600" y1="860" y2="860" /><line stroke="#444444" x1="0" x2="1600" y1="870" y2="870" /><line stroke="#444444" x1="0" x2="1600" y1="880" y2="880" /><line stroke="#444444" x1="0" x2="1600" y1="890" y2="890" /><line stroke="#444444" x1="0" x2="1600" y1="900" y2="900" /><line stroke="#444444" x1="0" x2="1600" y1="910" y2="910" /><line stroke="#444444" x1="0" x2="1600" y1="920" y2="920" /><line stroke="#444444" x1="0" x2="1600" y1="930" y2="930" /><line stroke="#444444" x1="0" x2="1600" y1="940" y2="940" /><line stroke="#444444" x1="0" x2="1600" y1="950" y2="950" /><line stroke="#444444" x1="0" x2="1600" y1="960" y2="960" /><line stroke="#444444" x1="0" x2="1600" y1="970" y2="970" /><line stroke="#444444" x1="0" x2="1600" y1="980" y2="980" /><line stroke="#444444" x1="0" x2="1600" y1="990" y2="990" /><line stroke="#444444" x1="0" x2="1600" y1="1000" y2="1000" /><line stroke="#444444" x1="0" x2="1600" y1="1010" y2="1010" /><line stroke="#444444" x1="0" x2="1600" y1="1020" y2="1020" /><line stroke="#444444" x1="0" x2="1600" y1="1030" y2="1030" /><line stroke="#444444" x1="0" x2="1600" y1="1040" y2="1040" /><line stroke="#444444" x1="0" x2="1600" y1="1050" y2="1050" /><line stroke="#444444" x1="0" x2="1600" y1="1060" y2="1060" /><line stroke="#444444" x1="0" x2="1600" y1="1070" y2="1070" /><line stroke="#444444" x1="0" x2="1600" y1="1080" y2="1080" /><line stroke="#444444" x1="0" x2="1600" y1="1090" y2="1090" /><line stroke="#444444" x1="0" x2="1600" y1="1100" y2="1100" /><line stroke="#444444" x1="0" x2="1600" y1="1110" y2="1110" /><line stroke="#444444" x1="0" x2="1600" y1="1120" y2="1120" /><line stroke="#444444" x1="0" x2="1600" y1="1130" y2="1130" /><line stroke="#444444" x1="0" x2="1600" y1="1140" y2="1140" /><line stroke="#444444" x1="0" x2="1600" y1="1150" y2="1150" /><line stroke="#444444" x1="0" x2="1600" y1="1160" y2="1160" /><line stroke="#444444" x1="0" x2="1600" y1="1170" y2="1170" /><line stroke="#444444" x1="0" x2="1600" y1="1180" y2="1180" /><line stroke="#444444" x1="0" x2="1600" y1="1190" y2="1190" /><line stroke="#444444" x1="0" x2="1600" y1="1200" y2="1200" /><line stroke="#444444" x1="0" x2="1600" y1="1210" y2="1210" /><line stroke="#444444" x1="0" x2="1600" y1="1220" y2="1220" /><line stroke="#444444" x1="0" x2="1600" y1="1230" y2="1230" /><line stroke="#444444" x1="0" x2="1600" y1="1240" y2="1240" /><line stroke="#444444" x1="0" x2="1600" y1="1250" y2="1250" /><line stroke="#444444" x1="0" x2="1600" y1="1260" y2="1260" /><line stroke="#444444" x1="0" x2="1600" y1="1270" y2="1270" /><line stroke="#444444" x1="0" x2="1600" y1="1280" y2="1280" /><line stroke="#444444" x1="0" x2="1600" y1="1290" y2="1290" /><line stroke="#444444" x1="0" x2="1600" y1="1300" y2="1300" /><line stroke="#444444" x1="0" x2="1600" y1="1310" y2="1310" /><line stroke="#444444" x1="0" x2="1600" y1="1320" y2="1320" /><line stroke="#444444" x1="0" x2="1600" y1="1330" y2="1330" /><line stroke="#444444" x1="0" x2="1600" y1="1340" y2="1340" /><line stroke="#444444" x1="0" x2="1600" y1="1350" y2="1350" /><line stroke="#444444" x1="0" x2="1600" y1="1360" y2="1360" /><line stroke="#444444" x1="0" x2="1600" y1="1370" y2="1370" /><line stroke="#444444" x1="0" x2="1600" y1="1380" y2="1380" /><line stroke="#444444" x1="0" x2="1600" y1="1390" y2="1390" /><line stroke="#444444" x1="0" x2="1600" y1="1400" y2="1400" /><line stroke="#444444" x1="0" x2="1600" y1="1410" y2="1410" /><line stroke="#444444" x1="0" x2="1600" y1="1420" y2="1420" /><line stroke="#444444" x1="0" x2="1600" y1="1430" y2="1430" /><line stroke="#444444" x1="0" x2="1600" y1="1440" y2="1440" /><line stroke="#444444" x1="0" x2="1600" y1="1450" y2="1450" /><line stroke="#444444" x1="0" x2="1600" y1="1460" y2="1460" /><line stroke="#444444" x1="0" x2="1600" y1="1470" y2="1470" /><line stroke="#444444" x1="0" x2="1600" y1="1480" y2="1480" /><line stroke="#444444" x1="0" x2="1600" y1="1490" y2="1490" /><line stroke="#444444" x1="0" x2="1600" y1="1500" y2="1500" /><line stroke="#444444" x1="0" x2="1600" y1="1510" y2="1510" /><line stroke="#444444" x1="0" x2="1600" y1="1520" y2="1520" /><line stroke="#444444" x1="0" x2="1600" y1="1530" y2="1530" /><line stroke="#444444" x1="0" x2="1600" y1="1540" y2="1540" /><line stroke="#444444" x1="0" x2="1600" y1="1550" y2="1550" /><line stroke="#444444" x1="0" x2="1600" y1="1560" y2="1560" /><line stroke="#444444" x1="0" x2="1600" y1="1570" y2="1570" /><line stroke="#444444" x1="0" x2="1600" y1="1580" y2="1580" /><line stroke="#444444" x1="0" x2="1600" y1="1590" y2="1590" /><line stroke="#444444" x1="0" x2="1600" y1="1600" y2="1600" /><line stroke="#444444" x1="0" x2="1600" y1="1610" y2="1610" /><line stroke="#444444" x1="0" x2="1600" y1="1620" y2="1620" /><line stroke="#444444" x1="0" x2="1600" y1="1630" y2="1630" /><line stroke="#444444" x1="0" x2="1600" y1="1640" y2="1640" /><line stroke="#444444" x1="0" x2="1600" y1="1650" y2="1650" /><line stroke="#444444" x1="0" x2="1600" y1="1660" y2="1660" /><line stroke="#444444" x1="0" x2="1600" y1="1670" y2="1670" /><line stroke="#444444" x1="0" x2="1600" y1="1680" y2="1680" /><line stroke="#444444" x1="0" x2="1600" y1="1690" y2="1690" /><line stroke="#444444" x1="0" x2="1600" y1="1700" y2="1700" /><line stroke="#444444" x1="0" x2="1600" y1="1710" y2="1710" /><line stroke="#444444" x1="0" x2="1600" y1="1720" y2="1720" /><line stroke="#444444" x1="0" x2="1600" y1="1730" y2="1730" /><line stroke="#444444" x1="0" x2="1600" y1="1740" y2="1740" /><line stroke="#444444" x1="0" x2="1600" y1="1750" y2="1750" /><line stroke="#444444" x1="0" x2="1600" y1="1760" y2="1760" /><line stroke="#444444" x1="0" x2="1600" y1="1770" y2="1770" /><line stroke="#444444" x1="0" x2="1600" y1="1780" y2="1780" /><line stroke="#444444" x1="0" x2="1600" y1="1790" y2="1790" /><line stroke="#444444" x1="0" x2="1600" y1="1800" y2="1800" /><line stroke="#444444" x1="0" x2="1600" y1="1810" y2="1810" /><line stroke="#444444" x1="0" x2="1600" y1="1820" y2="1820" /><line stroke="#444444" x1="0" x2="1600" y1="1830" y2="1830" /><line stroke="#444444" x1="0" x2="1600" y1="1840" y2="1840" /><line stroke="#444444" x1="0" x2="1600" y1="1850" y2="1850" /><line stroke="#444444" x1="0" x2="1600" y1="1860" y2="1860" /><line stroke="#444444" x1="0" x2="1600" y1="1870" y2="1870" /><line stroke="#444444" x1="0" x2="1600" y1="1880" y2="1880" /><line stroke="#444444" x1="0" x2="1600" y1="1890" y2="1890" /><line stroke="#444444" x1="0" x2="1600" y1="1900" y2="1900" /><line stroke="#444444" x1="0" x2="1600" y1="1910" y2="1910" /><line stroke="#444444" x1="0" x2="1600" y1="1920" y2="1920" /><line stroke="#444444" x1="0" x2="1600" y1="1930" y2="1930" /><line stroke="#444444" x1="0" x2="1600" y1="1940" y2="1940" /><line stroke="#444444" x1="0" x2="1600" y1="1950" y2="1950" /><line stroke="#444444" x1="0" x2="1600" y1="1960" y2="1960" /><line stroke="#444444" x1="0" x2="1600" y1="1970" y2="1970" /><line stroke="#444444" x1="0" x2="1600" y1="1980" y2="1980" /><line stroke="#444444" x1="0" x2="1600" y1="1990" y2="1990" /><line stroke="#444444" stroke-width="2" x1="100" x2="100" y1="0" y2="2000" /><line stroke="#444444" stroke-width="2" x1="200" x2="200" y1="0" y2="2000" /><line stroke="#444444" stroke-width="2" x1="300" x2="300" y1="0" y2="2000" /><line stroke="#444444" stroke-width="2" x1="400" x2="400" y1="0" y2="2000" /><line stroke="#444444" stroke-width="2" x1="500" x2="500" y1="0" y2="2000" /><line stroke="#444444" stroke-width="2" x1="600" x2="600" y1="0" y2="2000" /><line stroke="#444444" stroke-width="2" x1="700" x2="700" y1="0" y2="2000" /><line stroke="#444444" stroke-width="2" x1="800" x2="800" y1="0" y2="2000" /><line stroke="#444444" stroke-width="2" x1="900" x2="900" y1="0" y2="2000" /><line stroke="#444444" stroke-width="2" x1="1000" x2="1000" y1="0" y2="2000" /><line stroke="#444444" stroke-width="2" x1="1100" x2="1100" y1="0" y2="2000" /><line stroke="#444444" stroke-width="2" x1="1200" x2="1200" y1="0" y2="2000" /><line stroke="#444444" stroke-width="2" x1="1300" x2="1300" y1="0" y2="2000" /><line stroke="#444444" stroke-width="2" x1="1400" x2="1400" y1="0" y2="2000" /><line stroke="#444444" stroke-width="2" x1="1500" x2="1500" y1="0" y2="2000" /><line stroke="#444444" stroke-width="2" x1="0" x2="1600" y1="100" y2="100" /><line stroke="#444444" stroke-width="2" x1="0" x2="1600" y1="200" y2="200" /><line stroke="#444444" stroke-width="2" x1="0" x2="1600" y1="300" y2="300" /><line stroke="#444444" stroke-width="2" x1="0" x2="1600" y1="400" y2="400" /><line stroke="#444444" stroke-width="2" x1="0" x2="1600" y1="500" y2="500" /><line stroke="#444444" stroke-width="2" x1="0" x2="1600" y1="600" y2="600" /><line stroke="#444444" stroke-width="2" x1="0" x2="1600" y1="700" y2="700" /><line stroke="#444444" stroke-width="2" x1="0" x2="1600" y1="800" y2="800" /><line stroke="#444444" stroke-width="2" x1="0" x2="1600" y1="900" y2="900" /><line stroke="#444444" stroke-width="2" x1="0" x2="1600" y1="1000" y2="1000" /><line stroke="#444444" stroke-width="2" x1="0" x2="1600" y1="1100" y2="1100" /><line stroke="#444444" stroke-width="2" x1="0" x2="1600" y1="1200" y2="1200" /><line stroke="#444444" stroke-width="2" x1="0" x2="1600" y1="1300" y2="1300" /><line stroke="#444444" stroke-width="2" x1="0" x2="1600" y1="1400" y2="1400" /><line stroke="#444444" stroke-width="2" x1="0" x2="1600" y1="1500" y2="1500" /><line stroke="#444444" stroke-width="2" x1="0" x2="1600" y1="1600" y2="1600" /><line stroke="#444444" stroke-width="2" x1="0" x2="1600" y1="1700" y2="1700" /><line stroke="#444444" stroke-width="2" x1="0" x2="1600" y1="1800" y2="1800" /><line stroke="#444444" stroke-width="2" x1="0" x2="1600" y1="1900" y2="1900" /><line stroke="#444444" stroke-width="4" x1="1200" x2="1200" y1="0" y2="2000" /><line stroke="#444444" stroke-width="4" x1="0" x2="1600" y1="600" y2="600" /><g id="lines"><path d="M 2200,390 L 1546.6666666666667,390.0 A 200 200 0 0,0 1426.6666666666667 430.0 L 1000.0,750.0 A 200 200 0 0,0 920.0 910.0 L 920,1240" fill="none" stroke="#BBBB77" stroke-linecap="round" stroke-linejoin="round" stroke-width="10.0" /><path d="M 1350,800 L 1462.0,716.0 A 20 20 0 0,0 1470.0 700.0 L 1470.0,550.0 A 20 20 0 0,0 1466.0 538.0 L 1400.0,450.0 A 20 20 0 0,0 1372.0 446.0 L 566.6666666666666,1050" fill="none" stroke="#00FF00" stroke-linecap="round" stroke-linejoin="round" stroke-width="10.0" /><path d="M 1368.0,449.0 L 812.0000000000001,866.0 A 20 20 0 0,1 800.0000000000001 870.0 L 200,870" fill="none" stroke="#00FF00" stroke-linecap="round" stroke-linejoin="round" stroke-width="10.0" /><path d="M 1368.0,449.0 L 812.0000000000001,866.0 A 20 20 0 0,1 800.0000000000001 870.0 L 780.0,870.0 A 20 20 0 0,0 760.0 890.0 L 760,1600" fill="none" stroke="#00FF00" stroke-linecap="round" stroke-linejoin="round" stroke-width="10.0" /><path d="M 1170,130 L 1088.284271247462,130.0 A 20 20 0 0,0 1074.1421356237308 135.85786437626905 L 1065.8578643762692,144.14213562373095 A 20 20 0 0,1 1051.715728752538 150.0 L 800.0,150.0 A 20 20 0 0,0 780.0 170.0 L 780.0,960.0 A 20 20 0 0,0 800.0 980.0 L 1136.6666666666665,980.0 A 20 20 0 0,0 1148.6666666666665 976.0 L 1474.8445824720006,731.3665631459995 A 40 40 0 0,0 1486.0 718.0 L 1486.0,718.0 A 40 40 0 0,0 1490.0 701.0557280900008 L 1490.0,549.6578886536702 A 40 40 0 0,0 1488.0 537.3333333333334 L 1488.0,537.3333333333334 A 40 40 0 0,0 1482.205266807798 526.273689077064 L 1191.0,138.0 A 20 20 0 0,0 1175.0 130.0 L 1110.0,130.0 A 10.0 10.0 0 0,0 1100.0 140.0 L 1100.0,140.0 A 10.0 10.0 0 0,0 1110.0 150.0 L 1190.0,150.0 A 20 20 0 0,1 1206.0 158.0 L 1212.0,166.0" fill="none" stroke="#FFFF00" stroke-linecap="round" stroke-linejoin="round" stroke-width="10.0" /><path d="M 780,120 L 780.0,960.0 A 20 20 0 0,0 800.0 980.0 L 1434.142135623731,980" fill="none" stroke="#FFFF00" stroke-linecap="round" stroke-linejoin="round" stroke-width="10.0" /><path d="M 200,890 L 740.0,890.0 A 20 20 0 0,1 760.0 910.0 L 760,1050" fill="none" stroke="#FF7700" stroke-linecap="round" stroke-linejoin="round" stroke-width="10.0" /><path d="M 1420,1600 L 1420.0,860.0 A 20 20 0 0,0 1400.0 840.0 L 1390.0,840.0 A 20 20 0 0,1 1374.0 832.0 L 1174.0,565.3333333333334 A 20 20 0 0,1 1170.0 553.3333333333334 L 1170.0,308.2842712474619 A 20 20 0 0,0 1164.1421356237308 294.14213562373095 L 1155.8578643762692,285.85786437626905 A 20 20 0 0,1 1150.0 271.7157287525381 L 1150.0,198.2842712474619 A 20 20 0 0,1 1155.8578643762692 184.14213562373095 L 1170,170" fill="none" stroke="#FF0000" stroke-linecap="round" stroke-linejoin="round" stroke-width="10.0" /><path d="M 1375.857864376269,505.85786437626905 L 1155.857864376269,285.85786437626905 A 20 20 0 0,0 1141.715728752538 280.0 L 928.2842712474619,280.0 A 20 20 0 0,1 914.142135623731 274.14213562373095 L 875.857864376269,235.85786437626905 A 20 20 0 0,0 861.7157287525381 230.0 L 800,230" fill="none" stroke="#FF0000" stroke-linecap="round" stroke-linejoin="round" stroke-width="10.0" /><path d="M 2200,880 L 1395.0,880.0 A 20 20 0 0,1 1379.0 872.0 L 1136.0,548.0 A 20 20 0 0,0 1120.0 540.0 L 160.0,540.0 A 60 60 0 0,0 100.0 600.0 L 100,1600" fill="none" stroke="#9933FF" stroke-linecap="round" stroke-linejoin="round" stroke-width="10.0" /><path d="M 1361.715728752538,520 L 1247.5735931288073,405.85786437626905 A 20 20 0 0,0 1233.4314575050762 400.0 L 1158.284271247462,400.0 A 20 20 0 0,0 1144.1421356237308 405.85786437626905 L 1125.8578643762692,424.14213562373095 A 20 20 0 0,1 1111.715728752538 430.0 L 800,430" fill="none" stroke="#00FFFF" stroke-linecap="round" stroke-linejoin="round" stroke-width="10.0" /><path d="M 1350,1600 L 1350.0,1038.3333333333333 A 40 40 0 0,0 1342.0 1014.3333333333334 L 1254.0,897.0 A 40 40 0 0,1 1262.0 841.0 L 1386.0,748.0 A 40 40 0 0,0 1394.0 692.0 L 1334.0,612.0 A 40 40 0 0,1 1342.0 556.0 L 1459.3333333333333,468.0 A 40 40 0 0,1 1483.3333333333333 460.0 L 2200,460" fill="none" stroke="#AAAAAA" stroke-linecap="round" stroke-linejoin="round" stroke-width="5.0" /><path d="M 1390,520 L 1200.6666666666667,662.0 A 40 40 0 0,1 1176.6666666666667 670.0 L 620.0,670.0 A 40 40 0 0,1 580.0 630.0 L 580,520" fill="none" stroke="#AAAAAA" stroke-linecap="round" stroke-linejoin="round" stroke-width="5.0" /></g><g id="stops"><circle cx="1380" cy="465" fill="#000000" r="7.5" stroke="#BBBB77" stroke-width="5.0" /><circle cx="1300" cy="525" fill="#000000" r="7.5" stroke="#BBBB77" stroke-width="5.0" /><circle cx="1200" cy="600" fill="#000000" r="7.5" stroke="#BBBB77" stroke-width="5.0" /><circle cx="1085.3333333333333" cy="686.0" fill="#000000" r="7.5" stroke="#BBBB77" stroke-width="5.0" /><circle cx="920" cy="980" fill="#000000" r="7.5" stroke="#BBBB77" stroke-width="5.0" /><circle cx="920" cy="1200" fill="#000000" r="7.5" stroke="#BBBB77" stroke-width="5.0" /><circle cx="1350" cy="800" fill="#000000" r="7.5" stroke="#00FF00" stroke-width="5.0" /><circle cx="1430" cy="740" fill="#000000" r="7.5" stroke="#00FF00" stroke-width="5.0" /><circle cx="1470" cy="640" fill="#000000" r="7.5" stroke="#00FF00" stroke-width="5.0" /><circle cx="1460" cy="530" fill="#000000" r="7.5" stroke="#00FF00" stroke-width="5.0" /><circle cx="1368.0" cy="449.0" fill="#000000" r="7.5" stroke="#00FF00" stroke-width="5.0" /><circle cx="1288.0" cy="509.0" fill="#000000" r="7.5" stroke="#00FF00" stroke-width="5.0" /><circle cx="1188.0" cy="584.0" fill="#000000" r="7.5" stroke="#00FF00" stroke-width="5.0" /><circle cx="1073.3333333333333" cy="670" fill="#000000" r="7.5" stroke="#00FF00" stroke-width="5.0" /><circle cx="960" cy="755.0" fill="#000000" r="7.5" stroke="#00FF00" stroke-width="5.0" /><circle cx="760" cy="905.0" fill="#000000" r="7.5" stroke="#00FF00" stroke-width="5.0" /><circle cx="660" cy="980.0" fill="#000000" r="7.5" stroke="#00FF00" stroke-width="5.0" /><circle cx="700" cy="870" fill="#000000" r="7.5" stroke="#00FF00" stroke-width="5.0" /><circle cx="1000" cy="150" fill="#000000" r="7.5" stroke="#FFFF00" stroke-width="5.0" /><circle cx="880" cy="150" fill="#000000" r="7.5" stroke="#FFFF00" stroke-width="5.0" /><circle cx="780" cy="230" fill="#000000" r="7.5" stroke="#FFFF00" stroke-width="5.0" /><circle cx="780" cy="290" fill="#000000" r="7.5" stroke="#FFFF00" stroke-width="5.0" /><circle cx="780" cy="430" fill="#000000" r="7.5" stroke="#FFFF00" stroke-width="5.0" /><circle cx="780" cy="540" fill="#000000" r="7.5" stroke="#FFFF00" stroke-width="5.0" /><circle cx="780" cy="670" fill="#000000" r="7.5" stroke="#FFFF00" stroke-width="5.0" /><circle cx="780" cy="820" fill="#000000" r="7.5" stroke="#FFFF00" stroke-width="5.0" /><circle cx="780" cy="925.0" fill="#000000" r="7.5" stroke="#FFFF00" stroke-width="5.0" /><circle cx="900" cy="980" fill="#000000" r="7.5" stroke="#FFFF00" stroke-width="5.0" /><circle cx="1110" cy="980" fill="#000000" r="7.5" stroke="#FFFF00" stroke-width="5.0" /><circle cx="1242.0" cy="906.0" fill="#000000" r="7.5" stroke="#FFFF00" stroke-width="5.0" /><circle cx="1346.0" cy="828.0" fill="#000000" r="7.5" stroke="#FFFF00" stroke-width="5.0" /><circle cx="1442.0" cy="756.0" fill="#000000" r="7.5" stroke="#FFFF00" stroke-width="5.0" /><circle cx="1490" cy="640" fill="#000000" r="7.5" stroke="#FFFF00" stroke-width="5.0" /><circle cx="1476.0" cy="518.0" fill="#000000" r="7.5" stroke="#FFFF00" stroke-width="5.0" /><circle cx="1404.0" cy="422.0" fill="#000000" r="7.5" stroke="#FFFF00" stroke-width="5.0" /><circle cx="1326.0" cy="318.0" fill="#000000" r="7.5" stroke="#FFFF00" stroke-width="5.0" /><circle cx="1266.0" cy="238.0" fill="#000000" r="7.5" stroke="#FFFF00" stroke-width="5.0" /><circle cx="1170" cy="130" fill="#000000" r="7.5" stroke="#FFFF00" stroke-width="5.0" /><circle cx="1170" cy="150" fill="#000000" r="7.5" stroke="#FFFF00" stroke-width="5.0" /><circle cx="780" cy="120" fill="#000000" r="7.5" stroke="#FFFF00" stroke-width="5.0" /><circle cx="1434.142135623731" cy="980" fill="#000000" r="7.5" stroke="#FFFF00" stroke-width="5.0" /><circle cx="700" cy="890" fill="#000000" r="7.5" stroke="#FF7700" stroke-width="5.0" /><circle cx="760" cy="925.0" fill="#000000" r="7.5" stroke="#FF7700" stroke-width="5.0" /><circle cx="1420" cy="1160" fill="#000000" r="7.5" stroke="#FF0000" stroke-width="5.0" /><circle cx="1420" cy="1090" fill="#000000" r="7.5" stroke="#FF0000" stroke-width="5.0" /><circle cx="1420" cy="1020" fill="#000000" r="7.5" stroke="#FF0000" stroke-width="5.0" /><circle cx="1420" cy="950.857864376269" fill="#000000" r="7.5" stroke="#FF0000" stroke-width="5.0" /><circle cx="1420" cy="880" fill="#000000" r="7.5" stroke="#FF0000" stroke-width="5.0" /><circle cx="1362.0" cy="816.0" fill="#000000" r="7.5" stroke="#FF0000" stroke-width="5.0" /><circle cx="1305" cy="740" fill="#000000" r="7.5" stroke="#FF0000" stroke-width="5.0" /><circle cx="1242.0" cy="656.0" fill="#000000" r="7.5" stroke="#FF0000" stroke-width="5.0" /><circle cx="1176.0" cy="568.0" fill="#000000" r="7.5" stroke="#FF0000" stroke-width="5.0" /><circle cx="1170" cy="420" fill="#000000" r="7.5" stroke="#FF0000" stroke-width="5.0" /><circle cx="1160" cy="290" fill="#000000" r="7.5" stroke="#FF0000" stroke-width="5.0" /><circle cx="1170" cy="170" fill="#000000" r="7.5" stroke="#FF0000" stroke-width="5.0" /><circle cx="1375.857864376269" cy="505.85786437626905" fill="#000000" r="7.5" stroke="#FF0000" stroke-width="5.0" /><circle cx="1280" cy="410" fill="#000000" r="7.5" stroke="#FF0000" stroke-width="5.0" /><circle cx="980" cy="280" fill="#000000" r="7.5" stroke="#FF0000" stroke-width="5.0" /><circle cx="800" cy="230" fill="#000000" r="7.5" stroke="#FF0000" stroke-width="5.0" /><circle cx="1440" cy="880" fill="#000000" r="7.5" stroke="#9933FF" stroke-width="5.0" /><circle cx="1334.0" cy="812.0" fill="#000000" r="7.5" stroke="#9933FF" stroke-width="5.0" /><circle cx="1226.0" cy="668.0" fill="#000000" r="7.5" stroke="#9933FF" stroke-width="5.0" /><circle cx="1160.0" cy="580.0" fill="#000000" r="7.5" stroke="#9933FF" stroke-width="5.0" /><circle cx="980" cy="540" fill="#000000" r="7.5" stroke="#9933FF" stroke-width="5.0" /><circle cx="800" cy="540" fill="#000000" r="7.5" stroke="#9933FF" stroke-width="5.0" /><circle cx="580" cy="540" fill="#000000" r="7.5" stroke="#9933FF" stroke-width="5.0" /><circle cx="400" cy="540" fill="#000000" r="7.5" stroke="#9933FF" stroke-width="5.0" /><circle cx="200" cy="540" fill="#000000" r="7.5" stroke="#9933FF" stroke-width="5.0" /><circle cx="1361.715728752538" cy="520" fill="#000000" r="7.5" stroke="#00FFFF" stroke-width="5.0" /><circle cx="1265.857864376269" cy="424.14213562373095" fill="#000000" r="7.5" stroke="#00FFFF" stroke-width="5.0" /><circle cx="1170" cy="400" fill="#000000" r="7.5" stroke="#00FFFF" stroke-width="5.0" /><circle cx="1080" cy="430" fill="#000000" r="7.5" stroke="#00FFFF" stroke-width="5.0" /><circle cx="980" cy="430" fill="#000000" r="7.5" stroke="#00FFFF" stroke-width="5.0" /><circle cx="890" cy="430" fill="#000000" r="7.5" stroke="#00FFFF" stroke-width="5.0" /><circle cx="800" cy="430" fill="#000000" r="7.5" stroke="#00FFFF" stroke-width="5.0" /><circle cx="1350" cy="1120" fill="#000000" r="7.5" stroke="#AAAAAA" stroke-width="5.0" /><circle cx="1338.0" cy="784.0" fill="#000000" r="7.5" stroke="#AAAAAA" stroke-width="5.0" /><circle cx="1390" cy="520" fill="#000000" r="7.5" stroke="#AAAAAA" stroke-width="5.0" /><circle cx="1230" cy="640" fill="#000000" r="7.5" stroke="#AAAAAA" stroke-width="5.0" /><circle cx="1053.3333333333333" cy="670" fill="#000000" r="7.5" stroke="#AAAAAA" stroke-width="5.0" /><circle cx="800" cy="670" fill="#000000" r="7.5" stroke="#AAAAAA" stroke-width="5.0" /><circle cx="580" cy="520" fill="#000000" r="7.5" stroke="#AAAAAA" stroke-width="5.0" /></g></svg>